<svg width="711" height="282" viewBox="0 0 711 282" fill="none" xmlns="http://www.w3.org/2000/svg">
<path d="M0 0H27V282H0V0Z" fill="white"/>
<path d="M142 0H27V54H142V0Z" fill="white"/>
<path d="M142 67H24V153H142V67Z" fill="white"/>
<path d="M251 0H177V282H251V0Z" fill="white"/>
<path d="M251 207H317V282H251V207Z" fill="white"/>
<path d="M292 0H317V282H292V0Z" fill="white"/>
<path d="M460 0H485V282H460V0Z" fill="white"/>
<path d="M512 0H537V282H512V0Z" fill="white"/>
<path d="M351 0H421V282H351V0Z" fill="white"/>
<path d="M356 0H537V54H356V0Z" fill="white"/>
<path d="M214 0H317V17H214V0Z" fill="white"/>
<path d="M645 0H571V282H645V0Z" fill="white"/>
<path d="M645 207H711V282H645V207Z" fill="white"/>
<path d="M686 0H711V282H686V0Z" fill="white"/>
<path d="M608 0H711V17H608V0Z" fill="white"/>
<path d="M13 0H78V54H13V0Z" fill="white"/>
<path d="M177 207H317V282H177V207Z" fill="white"/>
<path d="M571 207H711V282H571V207Z" fill="white"/>
</svg>
